<svg xmlns="http://www.w3.org/2000/svg" display="block" preserveAspectRatio="none" viewBox="0 1 2048 2046">
    <path fill="#9c9b9b" d="M388.193 1682.23c-7.315-8-39.179-31.44-49.706-40.1C148.161 1485.91 28.1107 1260.14 5.01063 1015-18.4493 771.014 55.9168 527.694 211.767 338.509 367.861 148.455 593.42 28.6444 838.288 5.7197 1092.75-18.7181 1345.95 63.524 1537.48 232.828c30.28 26.898 58.84 55.668 85.52 86.14 8.78 10.09 17.32 20.392 25.6 30.897 5.55 6.959 14.04 19.006 20.8 24.195 197 144.064 329.09 360.144 367.48 601.162 5.1 32.438 8.23 64.158 9.74 96.898.23 4.97.54 10.1 1.38 15v68.67l-.15.92c-2.14 14.22-2.58 39.86-3.99 55.51-3.24 34.37-8.48 68.53-15.69 102.29-46.9 219.65-172.07 414.74-352.18 548.92-196.38 146.59-443 209.06-685.492 173.64-188.731-27.21-364.363-112.33-502.656-243.61-31.886-30.09-69.684-70.74-95.82-105.96-1.293-1.74-2.57-3.5-3.829-5.27"/>
    <path fill="#757474" d="M1669.4 374.06c197 144.064 329.09 360.144 367.48 601.162 5.1 32.438 8.23 64.158 9.74 96.898.23 4.97.54 10.1 1.38 15v68.67l-.15.92c-2.14 14.22-2.58 39.86-3.99 55.51-3.24 34.37-8.48 68.53-15.69 102.29-46.9 219.65-172.07 414.74-352.18 548.92-196.38 146.59-443 209.06-685.492 173.64-188.731-27.21-364.363-112.33-502.656-243.61-31.886-30.09-69.684-70.74-95.82-105.96-1.293-1.74-2.57-3.5-3.829-5.27 6.18 1.84 32.899 20.39 39.854 24.92 11.564 7.45 23.277 14.68 35.13 21.67 27.387 16.17 64.826 34.77 94.184 47.5 225.538 97.6 480.599 101.69 709.149 11.37 228.85-91.07 412.06-269.45 509.21-495.79 102.07-238.84 99.38-509.525-7.41-746.289-15.28-33.618-34.51-71.046-54.16-102.434-7.34-11.822-14.95-23.473-22.83-34.946-5.65-8.176-18.76-25.342-21.92-34.171"/>
    <path fill="#fefefe" d="M907.581 300.401c16.079-1.317 39.902.131 55.316 2.155 78.493 10.546 149.513 52.021 197.273 115.199 42.25 55.697 68.4 137.245 58.61 207.099 37.25-5.035 67.01-6.211 104.6.588 77.92 14.14 146.92 58.915 191.57 124.312 45.09 65.725 61.9 146.806 46.65 225.038-15.01 77.498-60.32 145.798-125.89 189.758-69.52 47.12-147.82 59.3-229.01 43.44l1.46 17.93c5.56 78.52-20.44 156.02-72.23 215.31-55.79 64.48-127.24 95.57-211.269 101.61-14.291.18-25.778.28-40.11-1-78.542-7.34-150.945-45.6-201.257-106.36-52.799-63.72-74.142-141.99-66.29-223.66-39.822 6.46-73.3 7.33-113.406-.51-77.736-15.44-146.084-61.29-189.846-127.37-43.755-65.99-59.354-146.716-43.333-224.258 16.033-77.295 62.103-145.062 128.083-188.402 70.172-46.089 148.458-57.725 229.647-40.96-2.69-47.307-1.113-84.931 15.024-130.658 41.031-116.268 142.564-190.678 264.408-199.261"/>
    <path fill="#9c9b9b" d="M907.659 407.406c20.363-2.984 51.766 1.541 71.242 7.583 49.209 14.983 90.249 49.272 113.749 95.036 23.62 45.767 27.59 99.175 11 147.932-4.91 14.427-13.32 28.379-17.35 41.229-4.16 13.344-2.73 27.808 3.96 40.079 9.98 18.392 28.58 28.994 49.31 27.854 16.21-.892 25.06-7.846 38.45-15.441 43.54-24.775 95.21-31.01 143.39-17.302 49.19 13.833 90.77 46.839 115.41 91.609 24.53 44.584 30.2 97.127 15.76 145.92-14.52 48.915-48.04 89.975-93.07 113.995-79.2 42.22-178.12 22.85-234.64-46.16-11.17-13.62-19.04-26.32-37.47-31.71-46.4-14.232-87.04 36.72-61.04 78.46 15.59 25.04 36.4 40.68 51.82 66.54 12.08 22.54 19.66 44.63 22.66 70.17 6.2 50.53-8.19 101.44-39.94 141.24-31.48 39.84-77.662 65.35-128.148 70.79-50.563 5.63-101.261-9.36-140.631-41.58-39.533-32.11-64.516-78.74-69.34-129.44-3.887-38.39 4.872-96.38 35.697-122.86 12.663-10.88 23.443-22.54 33.926-35.51 76.969-95.72 87.052-228.954 25.367-335.171-8.455-14.614-18.197-28.445-29.11-41.327-6.426-7.527-15.47-16.551-21.2-24.155-18.453-24.488-29.978-58.328-33.017-88.528-5.256-50.81 10.14-101.599 42.724-140.938 33.121-40.27 78.887-63.327 130.491-68.315"/>
    <path fill="#9c9b9b" d="M554.228 729.711c104.876-3.78 192.999 78.091 196.936 182.961 3.936 104.868-77.802 193.118-182.666 197.208-105.087 4.1-193.561-77.85-197.506-182.938-3.945-105.093 78.137-193.444 183.236-197.231"/>
</svg>